<?xml version="1.0" encoding="UTF-8"?>
<svg xmlns="http://www.w3.org/2000/svg" xmlns:xlink="http://www.w3.org/1999/xlink" width="30px" height="34px" viewBox="0 0 30 34" version="1.1">
<g id="surface1">
<path style=" stroke:none;fill-rule:nonzero;fill:rgb(100%,100%,100%);fill-opacity:1;" d="M 0 6.375 C 0 5.199219 0.957031 4.25 2.140625 4.25 L 27.859375 4.25 C 29.042969 4.25 30 5.199219 30 6.375 C 30 7.550781 29.042969 8.5 27.859375 8.5 L 2.140625 8.5 C 0.957031 8.5 0 7.550781 0 6.375 Z M 0 17 C 0 15.824219 0.957031 14.875 2.140625 14.875 L 27.859375 14.875 C 29.042969 14.875 30 15.824219 30 17 C 30 18.175781 29.042969 19.125 27.859375 19.125 L 2.140625 19.125 C 0.957031 19.125 0 18.175781 0 17 Z M 30 27.625 C 30 28.800781 29.042969 29.75 27.859375 29.75 L 2.140625 29.75 C 0.957031 29.75 0 28.800781 0 27.625 C 0 26.449219 0.957031 25.5 2.140625 25.5 L 27.859375 25.5 C 29.042969 25.5 30 26.449219 30 27.625 Z M 30 27.625 "/>
</g>
</svg>
